# xmcd
#
# Track frame offsets: 
#        150
#        27125
#        50490
#        77710
#        97370
#        120800
#        141762
#        170515
#        188605
#
# Disc length: 2798 seconds
#
# Revision: 5
# Processed by: cddbd v1.5.2PL0 Copyright (c) Steve Scherf et al.
# Submitted via: ExactAudioCopy v0.99pb5
#
DISCID=6e0aec09
DTITLE=Terry Evans - Walk That Walk
DYEAR=2000
DGENRE=Blues
TTITLE0=Walk That Walk
TTITLE1=The Story Of My Life
TTITLE2=A Stone's Throw Away
TTITLE3=Dancin' With Your Belly Up
TTITLE4=Don't Give Up
TTITLE5=Let's Have A Ball
TTITLE6=I'll Get Over You
TTITLE7=I Want To Go Back
TTITLE8=Credit Card Blues
EXTD=YEAR: 2000
EXTT0=
EXTT1=
EXTT2=
EXTT3=
EXTT4=
EXTT5=
EXTT6=
EXTT7=
EXTT8=
PLAYORDER=
